<svg viewBox="0 0 1957.74 360.38" xmlns="http://www.w3.org/2000/svg"><defs><style>.cls-1{fill:#0079f8;}</style></defs><title>Logo_OriginalRecurso 5</title><g data-name="Capa 2" id="Capa_2"><g data-name="Capa 1" id="Capa_1-2"><path class="cls-1" d="M756.77,346q-23.57,13-61.26,13A132.42,132.42,0,0,1,643,348.62a126.94,126.94,0,0,1-69-69.51,130.57,130.57,0,0,1-9.9-50.66v-.94a132.33,132.33,0,0,1,9.9-50.89,130.86,130.86,0,0,1,27.33-41.94A127.17,127.17,0,0,1,643,106.41Q667.23,96,696.45,96q35.8,0,59.37,11.31a133.33,133.33,0,0,1,41.47,31.1l-43.82,47.11h0a117.27,117.27,0,0,0-25.2-20.25q-13-7.53-32.28-7.54a55.58,55.58,0,0,0-24.74,5.42A61.2,61.2,0,0,0,651.92,178a67.5,67.5,0,0,0-12.72,21.91,78.18,78.18,0,0,0-4.48,26.62v.94a81.62,81.62,0,0,0,4.48,27.33,64.79,64.79,0,0,0,13,22.15,61.38,61.38,0,0,0,20.26,14.84,62.35,62.35,0,0,0,26.39,5.42q17.9,0,31.34-7.3a132.28,132.28,0,0,0,26.61-19.54h0L798.7,312.8h0A161.11,161.11,0,0,1,756.77,346Z"></path><path class="cls-1" d="M831.48,353.33V9.33H903.1v344Z"></path><path class="cls-1" d="M956.6,353.33V100.75h71.63V353.33Zm71.46-314.88A36.44,36.44,0,1,1,991.62,2,36.44,36.44,0,0,1,1028.06,38.46Z"></path><path class="cls-1" d="M1258.91,346q-23.57,13-61.26,13a132.42,132.42,0,0,1-52.54-10.37,126.94,126.94,0,0,1-69-69.51,130.57,130.57,0,0,1-9.9-50.66v-.94a132.33,132.33,0,0,1,9.9-50.89,130.86,130.86,0,0,1,27.33-41.94,127.17,127.17,0,0,1,41.7-28.27Q1169.37,96,1198.59,96q35.8,0,59.37,11.31a133.33,133.33,0,0,1,41.47,31.1l-43.83,47.12a117.28,117.28,0,0,0-25.21-20.26q-13-7.53-32.28-7.54a55.58,55.58,0,0,0-24.74,5.42A61.2,61.2,0,0,0,1154.06,178a67.5,67.5,0,0,0-12.72,21.91,78.18,78.18,0,0,0-4.48,26.62v.94a81.62,81.62,0,0,0,4.48,27.33,64.79,64.79,0,0,0,13,22.15,61.38,61.38,0,0,0,20.26,14.84,62.35,62.35,0,0,0,26.39,5.42q17.9,0,31.34-7.3a132.3,132.3,0,0,0,26.62-19.56l41.94,42.41A161.11,161.11,0,0,1,1258.91,346Z"></path><path class="cls-1" d="M1478.28,353.33V326a99.48,99.48,0,0,1-31.57,23.33q-18.38,8.71-44.77,8.72a112,112,0,0,1-33.69-4.95,79,79,0,0,1-27.57-14.84A71,71,0,0,1,1322.07,314q-6.84-14.37-6.83-33.22v-.94q0-20.73,7.54-35.81a68.76,68.76,0,0,1,21-25q13.43-9.9,32-14.84a160.41,160.41,0,0,1,41.23-4.95,176.42,176.42,0,0,1,33.69,2.83,211.45,211.45,0,0,1,28,7.54v-4.24q0-22.62-13.67-34.4t-40.53-11.78a168.29,168.29,0,0,0-36.52,3.53c-10.53,2.36-.63-2.11-12.25,2.28l-38.87-46.79a0,0,0,0,1,0,0,281.54,281.54,0,0,1,43.33-14.6q22.62-5.65,54.66-5.65,58.9,0,85.76,28.74t26.86,80.11V353.33Zm1.42-101.79a109.79,109.79,0,0,0-21-6.83,113.14,113.14,0,0,0-24.74-2.59q-23.09,0-36.28,9T1384.51,277v.94q0,14.61,10.84,22.62t28.27,8q25.45,0,40.76-12.25t15.32-32Z"></path><path class="cls-1" d="M1740.54,171q-35.82,0-56.31,21.68T1663.73,260v93.3H1592.1V100.75h71.63v50.89q10.83-25.91,29.69-41.47T1744.29,96L1763.76,95l-19.45,76Z"></path><path class="cls-1" d="M1949.79,313a67.16,67.16,0,0,1-20.5,25.21,92.4,92.4,0,0,1-30.87,14.84,140.18,140.18,0,0,1-37.93,4.95,175.68,175.68,0,0,1-54.9-9.19c-18.69-6.13-31.13-15.79-48.1-29h0l38.6-44.41c0-.06,14.25,14.9,27.88,19.9s26.46,7.54,38.41,7.54q15.55,0,22.86-5.18t7.3-13.67v-.94a13.57,13.57,0,0,0-4.24-9.9,35.71,35.71,0,0,0-11.55-7.3A170.67,170.67,0,0,0,1860,260q-9.43-2.83-19.79-6.13a266.27,266.27,0,0,1-26.62-9.19,95.05,95.05,0,0,1-24.27-14.14,69,69,0,0,1-17.67-21.44q-6.84-12.72-6.83-31.1v-.94q0-19.32,7.3-34.16a75.89,75.89,0,0,1,19.79-25.21,84.27,84.27,0,0,1,29.22-15.55,121.24,121.24,0,0,1,36-5.18,162,162,0,0,1,48.77,7.78c16.49,5.18,38,13.42,51.78,22.53l-33.64,48.39a225.84,225.84,0,0,0-36.76-17.2q-17.91-6.36-31.57-6.36-13.2,0-19.79,4.95t-6.6,12.49v.94a12.3,12.3,0,0,0,4.24,9.19,47,47,0,0,0,11.31,7.54,148.71,148.71,0,0,0,16.26,6.83q9.19,3.3,19.56,6.6,13.19,4.24,26.86,10.13a110.83,110.83,0,0,1,24.5,14.37A71.31,71.31,0,0,1,1950,245.89q7.07,12.26,7.07,29.69v.94Q1957.09,297.73,1949.79,313Z"></path><path class="cls-1" d="M495.42,133.54l0,.11c.1.25.22.49.32.75Z"></path><path class="cls-1" d="M487.9,121.32l-.28-.11a22.55,22.55,0,0,0,16.42-18c2.09-12.91-7.43-25.58-21.25-28.3S456.07,80.48,454,93.39a23,23,0,0,0,1.91,13.38c-5.63-1.27-12-2.51-19.33-3.68v0a219.49,219.49,0,0,0-14-67.69l.7,2c-3.76-9.65-10.61-17.28-19.55-21.13l1.78.69C383.91,8,340,0,252.19,0h0C164.29,0,120.42,8,98.8,17l1.78-.69C91.65,20.13,84.79,27.76,81,37.41l.7-2a219.49,219.49,0,0,0-14,67.69v0c-7.29,1.17-13.7,2.41-19.33,3.68a23,23,0,0,0,1.91-13.38c-2.09-12.91-15-21.18-28.8-18.47S-1.8,90.3.29,103.22a22.55,22.55,0,0,0,16.42,18l-.28.11a40.27,40.27,0,0,0-7.55,12.33,195.1,195.1,0,0,0-8.73,58,192.09,192.09,0,0,0,21.51,89l.23.44,3.94,44.33v.14l.1,1.11,0-.52c1.89,19.23,16.65,34.21,34.6,34.21H82.12c14.28,0,26-12.89,26-28.65v-41l144,1.11H396.24v39.89c0,15.75,11.69,28.65,26,28.65h21.62c17.95,0,32.71-15,34.6-34.21l0,.52.1-1.11v-.14l3.94-44.33.23-.44a192.09,192.09,0,0,0,21.51-89,195.1,195.1,0,0,0-8.73-58A40.27,40.27,0,0,0,487.9,121.32ZM98.54,48s11.33-16.74,30.75-17.33c0,0,63.81-7.42,126.45-7.42h.39c62.64,0,103.1,2.44,131.44,10.81,0,0,19.84,8.37,23.91,24.15,0,0,10.09,26.06,7.78,41.78-35.62-4.22-89.71-7.1-163.28-7.1h-.08c-73.58,0-133.07,1.1-168.7,5.32C87.21,67.5,98.52,48,98.54,48ZM79.69,211.7a39.8,39.8,0,1,1,40.21-39.8A40,40,0,0,1,79.69,211.7Zm280.75-4.12c-15.17,14.6-49.32,39.28-106.82,39.28s-91-24.77-105.66-39.36c-4.18-4.15-.51-10.41,6.06-10.41H354.46C361.09,197.08,364.74,203.44,360.44,207.57Zm67.85,4.12a39.8,39.8,0,1,1,40.21-39.8A40,40,0,0,1,428.29,211.7Z"></path><path class="cls-1" d="M8.56,134.4c.09-.26.22-.5.32-.75l0-.11Z"></path></g></g></svg>